<svg
  width="423.9300079345703"
  height="88.5253924611677"
  viewBox="0 0 375 78.30779032292882"
  class="looka-1j8o68f"
>
  <defs id="SvgjsDefs2379"></defs>
  <g
    id="SvgjsG2380"
    featurekey="nYIUkx-0"
    transform="matrix(0.11379152758736125,0,0,0.11379152758736125,0,-3.5033185433517673)"
    fill="#eeeeee"
  >
    <g xmlns="http://www.w3.org/2000/svg">
      <path
        d="M587.1,45.8c-52.2,0-103.5,13.8-148.2,40.5c-43.8-25.9-95.1-40.5-147.2-40.5C130.8,45.8,0,176.5,0,337.4         c0,160.9,130.8,291.7,291.7,291.7c52,0,103.1-13.7,147.7-40.2c44.6,26.5,95.7,40.2,147.7,40.2c160.9,0,291.7-130.8,291.7-291.7         C878.8,176.5,748,45.8,587.1,45.8z M439.4,559.9c-46.1-30.9-80.6-74-100.4-123.3l113.7,113.7C448.4,553.6,443.9,556.8,439.4,559.9z          M473.4,532.7L323.8,383.2c-2.6-15-3.9-30.3-3.9-45.8c0-3.6,0.1-7.2,0.2-10.8l178.4,179.1C490.8,515.3,482.4,524.3,473.4,532.7z          M514.7,483.7L323.8,292.1c2.5-14.5,6.1-28.6,10.9-42.3l199.2,199.2C528.3,461,521.9,472.6,514.7,483.7z M544.6,421.5L345.8,222.6         c5.5-11.5,11.8-22.6,18.9-33.3l190.1,190.1C552.5,393.8,549.1,407.9,544.6,421.5z M380.9,167.4c7.9-9.6,16.5-18.7,25.8-27.3         l146.6,146.6c3.1,16.5,4.7,33.4,4.7,50.7c0,2.3,0,4.6-0.1,7L380.9,167.4z M427.6,122.8c3.7-2.8,7.6-5.5,11.5-8.2         c44.6,29.3,78.1,70.3,98,117.6L427.6,122.8z M24.5,337.4C24.5,189.7,144,70.2,291.7,70.2c44.2,0,86.6,10.3,125.1,31         c-76.2,54.6-120.4,142.1-120.4,236.2S341.6,519,416.8,573.6c-38.6,20.7-81.9,31-125.1,31C144,604.7,24.5,485.2,24.5,337.4z          M587.1,604.7c-44.2,0-86.6-10.3-125.1-31c76.2-54.6,120.4-142.1,120.4-236.2S538.2,155.8,462,101.3c38.6-20.7,80.9-31,125.1-31         c147.7,0,267.2,119.5,267.2,267.2C854.4,485.2,734.9,604.7,587.1,604.7z"
      ></path>
    </g>
  </g>
  <g
    id="SvgjsG2381"
    featurekey="PXhRQw-0"
    transform="matrix(2.9544151095684263,0,0,2.9544151095684263,122.46097485014467,-9.772075547842132)"
    fill="#eeeeee"
  >
    <path
      d="M8.0762 20.19531 c-4.1504 0 -7.2168 -2.832 -7.2168 -7.2559 c0 -4.4336 3.0664 -7.2461 7.2168 -7.2461 c4.1406 0 7.207 2.8125 7.207 7.2461 c0 4.4238 -3.0664 7.2559 -7.207 7.2559 z M8.0762 17.5098 c2.4316 0 4.2969 -1.709 4.2969 -4.5703 c0 -2.8516 -1.8652 -4.5508 -4.2969 -4.5508 s-4.2969 1.6992 -4.2969 4.5508 c0 2.8613 1.8652 4.5703 4.2969 4.5703 z M20.30274375 11.5527 c0.50781 -0.88867 1.8262 -1.709 3.2813 -1.709 l0 2.5098 c-2.1289 0 -3.1445 0.625 -3.1445 2.7539 l0 4.8926 l-2.832 0 l0 -10.039 l2.6953 0 l0 1.5918 z M29.746096875 17.959 c1.1816 0 2.0508 -0.56641 2.3633 -1.7578 l2.5977 0.2832 c-0.45898 2.2363 -2.2168 3.5449 -4.4922 3.6914 l-0.58594 1.0254 c0.14648 -0.029297 0.30273 -0.058594 0.43945 -0.058594 c1.1035 0 1.9141 0.77148 1.9141 1.875 c0 1.2207 -0.95703 2.1777 -2.1777 2.1777 c-1.1426 0 -2.0215 -0.6543 -2.334 -1.4746 l1.2402 -0.42969 c0.19531 0.39063 0.63477 0.625 1.0352 0.625 c0.48828 0 0.91797 -0.35156 0.91797 -0.89844 c0 -0.58594 -0.42969 -0.88867 -0.9375 -0.88867 c-0.27344 0 -0.53711 0.097656 -0.72266 0.30273 l-1.0254 -0.60547 l0.92773 -1.6992 c-2.6855 -0.35156 -4.5117 -2.334 -4.5117 -5.1563 c0 -3.125 2.2266 -5.2051 5.3809 -5.2051 c2.5391 0 4.4434 1.3184 4.9316 3.6914 l-2.5977 0.2832 c-0.3125 -1.2012 -1.1816 -1.7578 -2.3633 -1.7578 c-1.5137 0 -2.5391 1.1914 -2.5391 2.9883 c0 1.7871 1.0254 2.9883 2.5391 2.9883 z M44.94140625 17.2754 c0 1.2305 0.11719 2.0117 0.24414 2.4512 l0 0.27344 l-2.627 0 l-0.22461 -1.0938 c-0.75195 0.9082 -2.0508 1.2891 -3.2227 1.2891 c-1.582 0 -3.125 -0.70313 -3.125 -2.793 c0 -2.0801 1.5527 -2.7832 3.6523 -3.2422 l1.6504 -0.37109 c0.71289 -0.16602 0.9668 -0.41016 0.9668 -0.82031 c0 -0.98633 -0.89844 -1.2598 -1.6895 -1.2598 c-1.0156 0 -1.7871 0.40039 -1.9629 1.5332 l-2.4902 -0.44922 c0.41992 -2.0801 1.9434 -3.0273 4.6094 -3.0273 c2.0117 0 4.2188 0.5957 4.2188 3.623 l0 3.8867 z M39.99020625 18.291 c1.3379 0 2.4121 -0.88867 2.4121 -2.8809 l-2.3828 0.67383 c-0.78125 0.18555 -1.3477 0.45898 -1.3477 1.1328 c0 0.72266 0.5957 1.0742 1.3184 1.0742 z M50.976603125 17.4121 l4.4238 0 l0 2.5879 l-7.3535 0 l0 -14.111 l2.9297 0 l0 11.523 z M58.701146875 8.457 c-0.88867 0 -1.6309 -0.72266 -1.6309 -1.6211 c0 -0.88867 0.74219 -1.6113 1.6309 -1.6113 c0.86914 0 1.6113 0.72266 1.6113 1.6113 c0 0.89844 -0.74219 1.6211 -1.6113 1.6211 z M57.265646875 20 l0 -10.039 l2.832 0 l0 10.039 l-2.832 0 z M68.935534375 9.766 c2.4121 0 3.7402 1.25 3.7402 3.4766 l0 6.7578 l-2.8223 0 l0 -6.1523 c0 -1.3379 -0.83008 -1.8262 -1.7969 -1.8262 c-1.1621 0 -2.2168 0.58594 -2.2363 2.4414 l0 5.5371 l-2.8125 0 l0 -10.039 l2.8125 0 l0 1.1133 c0.70313 -0.83008 1.7871 -1.3086 3.1152 -1.3086 z M82.0605125 20 l-3.2324 -4.2188 l-0.58594 0 l0 4.2188 l-2.8418 0 l0 -15 l2.8418 0 l0 8.8281 l0.52734 0 l3.1543 -3.8672 l3.1836 0 l-3.9551 4.6582 l4.3262 5.3809 l-3.418 0 z"
    ></path>
  </g>
  <g
    id="SvgjsG2382"
    featurekey="mlRtrp-0"
    transform="matrix(0.17004010430731592,0,0,0.17004010430731592,149.79570704131464,74.84553559979872)"
    fill="#eeeeee"
  >
    <path
      d="M16.885 19.08203 c-0.46875 0.19531 -0.94076 0.37102 -1.416 0.52727 s-0.9668 0.29134 -1.4746 0.40527 s-1.0433 0.2002 -1.6064 0.25879 s-1.167 0.087891 -1.8115 0.087891 c-1.3672 0 -2.6253 -0.14648 -3.7744 -0.43945 s-2.1387 -0.73405 -2.9688 -1.3232 s-1.4763 -1.3249 -1.9385 -2.207 s-0.69336 -1.9124 -0.69336 -3.0908 s0.23112 -2.2087 0.69336 -3.0908 s1.1084 -1.6179 1.9385 -2.207 s1.8196 -1.0303 2.9688 -1.3232 s2.4072 -0.43945 3.7744 -0.43945 c0.64453 0 1.2483 0.029297 1.8115 0.087891 s1.0986 0.14485 1.6064 0.25879 s0.99932 0.24902 1.4746 0.40527 s0.94727 0.33203 1.416 0.52734 l0 3.2617 c-0.37109 -0.20183 -0.76172 -0.40202 -1.1719 -0.60059 s-0.86263 -0.3776 -1.3574 -0.5371 s-1.0384 -0.28971 -1.6309 -0.39062 s-1.2598 -0.15137 -2.002 -0.15137 c-1.1394 0 -2.085 0.11719 -2.8369 0.35156 s-1.3525 0.54688 -1.8018 0.9375 s-0.76497 0.83821 -0.94727 1.3428 s-0.27344 1.0271 -0.27344 1.5674 c0 0.35808 0.039063 0.71127 0.11719 1.0596 s0.20833 0.67709 0.39063 0.98633 s0.41992 0.59408 0.71289 0.8545 s0.65755 0.48503 1.0938 0.67383 s0.94564 0.33691 1.5283 0.44434 s1.2549 0.16113 2.0166 0.16113 c0.74219 0 1.4095 -0.047197 2.002 -0.1416 s1.136 -0.21973 1.6309 -0.37598 s0.94727 -0.33366 1.3574 -0.53223 s0.80078 -0.40201 1.1719 -0.61034 l0 3.2617 l0 0 z M52.54503125 13.300799999999999 c0 1.1523 -0.21159 2.1696 -0.63477 3.0518 s-1.0286 1.6194 -1.8164 2.2119 s-1.7432 1.04 -2.8662 1.3428 s-2.3845 0.4541 -3.7842 0.4541 s-2.6644 -0.15137 -3.7939 -0.4541 s-2.0915 -0.75032 -2.8857 -1.3428 s-1.4063 -1.3298 -1.8359 -2.2119 s-0.64453 -1.8994 -0.64453 -3.0518 s0.21484 -2.1696 0.64453 -3.0518 s1.0417 -1.6194 1.8359 -2.2119 s1.7562 -1.04 2.8857 -1.3428 s2.3942 -0.4541 3.7939 -0.4541 s2.6611 0.15137 3.7842 0.4541 s2.0784 0.75032 2.8662 1.3428 s1.3933 1.3298 1.8164 2.2119 s0.63477 1.8994 0.63477 3.0518 z M48.88303125 13.300799999999999 c0 -0.5013 -0.079756 -1.001 -0.23926 -1.499 s-0.44271 -0.94563 -0.84961 -1.3428 s-0.96191 -0.7194 -1.665 -0.9668 s-1.5983 -0.37109 -2.6855 -0.37109 c-0.72917 0 -1.3704 0.056963 -1.9238 0.1709 s-1.0319 0.27182 -1.4355 0.47364 s-0.74219 0.43783 -1.0156 0.70802 s-0.49153 0.5599 -0.6543 0.86915 s-0.27832 0.63151 -0.34668 0.9668 s-0.10254 0.66568 -0.10254 0.99121 c0 0.33203 0.03418 0.66731 0.10254 1.0059 s0.18392 0.66244 0.34668 0.97169 s0.38086 0.59733 0.6543 0.86426 s0.61198 0.49967 1.0156 0.69823 s0.88216 0.35481 1.4355 0.46875 s1.1946 0.1709 1.9238 0.1709 c1.0872 0 1.9824 -0.1237 2.6855 -0.37109 s1.2581 -0.56966 1.665 -0.9668 s0.69011 -0.84473 0.84961 -1.3428 s0.23926 -0.99775 0.23926 -1.499 z M83.4390625 20 l-9.0527 -9.2188 l0 9.2188 l-3.623 0 l0 -13.418 l3.9355 0 l9.0625 9.2578 l0 -9.2578 l3.6035 0 l0 13.418 l-3.9258 0 z M106.4824125 20 l0 -13.418 l13.584 0 l0 2.8613 l-9.8633 0 l0 2.2168 l9.3555 0 l0 2.8613 l-9.3555 0 l0 2.6172 l10 0 l0 2.8613 l-13.721 0 z M153.402578125 19.08203 c-0.46875 0.19531 -0.94076 0.37102 -1.416 0.52727 s-0.9668 0.29134 -1.4746 0.40527 s-1.0433 0.2002 -1.6064 0.25879 s-1.167 0.087891 -1.8115 0.087891 c-1.3672 0 -2.6253 -0.14648 -3.7744 -0.43945 s-2.1387 -0.73405 -2.9688 -1.3232 s-1.4763 -1.3249 -1.9385 -2.207 s-0.69336 -1.9124 -0.69336 -3.0908 s0.23112 -2.2087 0.69336 -3.0908 s1.1084 -1.6179 1.9385 -2.207 s1.8196 -1.0303 2.9688 -1.3232 s2.4072 -0.43945 3.7744 -0.43945 c0.64453 0 1.2483 0.029297 1.8115 0.087891 s1.0986 0.14485 1.6064 0.25879 s0.99932 0.24902 1.4746 0.40527 s0.94727 0.33203 1.416 0.52734 l0 3.2617 c-0.37109 -0.20183 -0.76172 -0.40202 -1.1719 -0.60059 s-0.86263 -0.3776 -1.3574 -0.5371 s-1.0384 -0.28971 -1.6309 -0.39062 s-1.2598 -0.15137 -2.002 -0.15137 c-1.1394 0 -2.085 0.11719 -2.8369 0.35156 s-1.3525 0.54688 -1.8018 0.9375 s-0.76497 0.83821 -0.94727 1.3428 s-0.27344 1.0271 -0.27344 1.5674 c0 0.35808 0.039063 0.71127 0.11719 1.0596 s0.20833 0.67709 0.39063 0.98633 s0.41992 0.59408 0.71289 0.8545 s0.65755 0.48503 1.0938 0.67383 s0.94564 0.33691 1.5283 0.44434 s1.2549 0.16113 2.0166 0.16113 c0.74219 0 1.4095 -0.047197 2.002 -0.1416 s1.136 -0.21973 1.6309 -0.37598 s0.94727 -0.33366 1.3574 -0.53223 s0.80078 -0.40201 1.1719 -0.61034 l0 3.2617 l0 0 z M179.218709375 9.502 l0 10.498 l-3.623 0 l0 -10.498 l-5.6934 0 l0 -2.9199 l15.02 0 l0 2.9199 l-5.7031 0 z M212.2325625 17.4609 l-7.4805 0 l-1.2598 2.5391 l-4.043 0 l7.0215 -13.418 l4.043 0 l7.0215 13.418 l-4.043 0 z M206.0507625 14.8437 l4.9023 0 l-2.4414 -4.9414 z M247.32578125 20 l-9.0527 -9.2188 l0 9.2188 l-3.623 0 l0 -13.418 l3.9355 0 l9.0625 9.2578 l0 -9.2578 l3.6035 0 l0 13.418 l-3.9258 0 z M286.80453125 13.2812 c0 0.85938 -0.094385 1.6228 -0.28318 2.29 s-0.4541 1.2483 -0.7959 1.7432 s-0.75195 0.91472 -1.2305 1.2598 s-1.0107 0.62174 -1.5967 0.83007 s-1.2175 0.3597 -1.8945 0.4541 s-1.3835 0.1416 -2.1191 0.1416 l-8.5156 0 l0 -13.418 l8.4961 0 c0.73567 0 1.4421 0.047197 2.1191 0.1416 s1.3103 0.24577 1.8994 0.4541 s1.1247 0.4834 1.6064 0.8252 s0.89355 0.76172 1.2354 1.2598 s0.6071 1.0791 0.7959 1.7432 s0.2832 1.4226 0.2832 2.2754 z M283.15253125 13.2812 c0 -0.64453 -0.083008 -1.2044 -0.24902 -1.6797 s-0.43294 -0.86752 -0.80078 -1.1768 s-0.84799 -0.54037 -1.4404 -0.69337 s-1.3151 -0.22949 -2.168 -0.22949 l-4.502 0 l0 7.5781 l4.502 0 c0.85286 0 1.5755 -0.076494 2.168 -0.22949 s1.0726 -0.38737 1.4404 -0.70313 s0.63477 -0.71126 0.80078 -1.1865 s0.24902 -1.0352 0.24902 -1.6797 z M322.386828125 13.300799999999999 c0 1.1523 -0.21159 2.1696 -0.63477 3.0518 s-1.0286 1.6194 -1.8164 2.2119 s-1.7432 1.04 -2.8662 1.3428 s-2.3845 0.4541 -3.7842 0.4541 s-2.6644 -0.15137 -3.7939 -0.4541 s-2.0915 -0.75032 -2.8857 -1.3428 s-1.4063 -1.3298 -1.8359 -2.2119 s-0.64453 -1.8994 -0.64453 -3.0518 s0.21484 -2.1696 0.64453 -3.0518 s1.0417 -1.6194 1.8359 -2.2119 s1.7562 -1.04 2.8857 -1.3428 s2.3942 -0.4541 3.7939 -0.4541 s2.6611 0.15137 3.7842 0.4541 s2.0784 0.75032 2.8662 1.3428 s1.3933 1.3298 1.8164 2.2119 s0.63477 1.8994 0.63477 3.0518 z M318.724828125 13.300799999999999 c0 -0.5013 -0.079756 -1.001 -0.23926 -1.499 s-0.44271 -0.94563 -0.84961 -1.3428 s-0.96191 -0.7194 -1.665 -0.9668 s-1.5983 -0.37109 -2.6855 -0.37109 c-0.72917 0 -1.3704 0.056963 -1.9238 0.1709 s-1.0319 0.27182 -1.4355 0.47364 s-0.74219 0.43783 -1.0156 0.70802 s-0.49153 0.5599 -0.6543 0.86915 s-0.27832 0.63151 -0.34668 0.9668 s-0.10254 0.66568 -0.10254 0.99121 c0 0.33203 0.03418 0.66731 0.10254 1.0059 s0.18392 0.66244 0.34668 0.97169 s0.38086 0.59733 0.6543 0.86426 s0.61198 0.49967 1.0156 0.69823 s0.88216 0.35481 1.4355 0.46875 s1.1946 0.1709 1.9238 0.1709 c1.0872 0 1.9824 -0.1237 2.6855 -0.37109 s1.2581 -0.56966 1.665 -0.9668 s0.69011 -0.84473 0.84961 -1.3428 s0.23926 -0.99775 0.23926 -1.499 z M372.047359375 20 l-4.2188 0 l-6.7871 -13.418 l4.043 0 l4.8828 10.098 l4.873 -10.098 l4.043 0 z M413.166125 13.300799999999999 c0 1.1523 -0.21159 2.1696 -0.63477 3.0518 s-1.0286 1.6194 -1.8164 2.2119 s-1.7432 1.04 -2.8662 1.3428 s-2.3845 0.4541 -3.7842 0.4541 s-2.6644 -0.15137 -3.7939 -0.4541 s-2.0915 -0.75032 -2.8857 -1.3428 s-1.4063 -1.3298 -1.8359 -2.2119 s-0.64453 -1.8994 -0.64453 -3.0518 s0.21484 -2.1696 0.64453 -3.0518 s1.0417 -1.6194 1.8359 -2.2119 s1.7562 -1.04 2.8857 -1.3428 s2.3942 -0.4541 3.7939 -0.4541 s2.6611 0.15137 3.7842 0.4541 s2.0784 0.75032 2.8662 1.3428 s1.3933 1.3298 1.8164 2.2119 s0.63477 1.8994 0.63477 3.0518 z M409.504125 13.300799999999999 c0 -0.5013 -0.079756 -1.001 -0.23926 -1.499 s-0.44271 -0.94563 -0.84961 -1.3428 s-0.96191 -0.7194 -1.665 -0.9668 s-1.5983 -0.37109 -2.6855 -0.37109 c-0.72917 0 -1.3704 0.056963 -1.9238 0.1709 s-1.0319 0.27182 -1.4355 0.47364 s-0.74219 0.43783 -1.0156 0.70802 s-0.49153 0.5599 -0.6543 0.86915 s-0.27832 0.63151 -0.34668 0.9668 s-0.10254 0.66568 -0.10254 0.99121 c0 0.33203 0.03418 0.66731 0.10254 1.0059 s0.18392 0.66244 0.34668 0.97169 s0.38086 0.59733 0.6543 0.86426 s0.61198 0.49967 1.0156 0.69823 s0.88216 0.35481 1.4355 0.46875 s1.1946 0.1709 1.9238 0.1709 c1.0872 0 1.9824 -0.1237 2.6855 -0.37109 s1.2581 -0.56966 1.665 -0.9668 s0.69011 -0.84473 0.84961 -1.3428 s0.23926 -0.99775 0.23926 -1.499 z M446.17015625 19.08203 c-0.46875 0.19531 -0.94076 0.37102 -1.416 0.52727 s-0.9668 0.29134 -1.4746 0.40527 s-1.0433 0.2002 -1.6064 0.25879 s-1.167 0.087891 -1.8115 0.087891 c-1.3672 0 -2.6253 -0.14648 -3.7744 -0.43945 s-2.1387 -0.73405 -2.9688 -1.3232 s-1.4763 -1.3249 -1.9385 -2.207 s-0.69336 -1.9124 -0.69336 -3.0908 s0.23112 -2.2087 0.69336 -3.0908 s1.1084 -1.6179 1.9385 -2.207 s1.8196 -1.0303 2.9688 -1.3232 s2.4072 -0.43945 3.7744 -0.43945 c0.64453 0 1.2483 0.029297 1.8115 0.087891 s1.0986 0.14485 1.6064 0.25879 s0.99932 0.24902 1.4746 0.40527 s0.94727 0.33203 1.416 0.52734 l0 3.2617 c-0.37109 -0.20183 -0.76172 -0.40202 -1.1719 -0.60059 s-0.86263 -0.3776 -1.3574 -0.5371 s-1.0384 -0.28971 -1.6309 -0.39062 s-1.2598 -0.15137 -2.002 -0.15137 c-1.1394 0 -2.085 0.11719 -2.8369 0.35156 s-1.3525 0.54688 -1.8018 0.9375 s-0.76497 0.83821 -0.94727 1.3428 s-0.27344 1.0271 -0.27344 1.5674 c0 0.35808 0.039063 0.71127 0.11719 1.0596 s0.20833 0.67709 0.39063 0.98633 s0.41992 0.59408 0.71289 0.8545 s0.65755 0.48503 1.0938 0.67383 s0.94564 0.33691 1.5283 0.44434 s1.2549 0.16113 2.0166 0.16113 c0.74219 0 1.4095 -0.047197 2.002 -0.1416 s1.136 -0.21973 1.6309 -0.37598 s0.94727 -0.33366 1.3574 -0.53223 s0.80078 -0.40201 1.1719 -0.61034 l0 3.2617 l0 0 z M464.4667875 20 l0 -13.418 l13.584 0 l0 2.8613 l-9.8633 0 l0 2.2168 l9.3555 0 l0 2.8613 l-9.3555 0 l0 2.6172 l10 0 l0 2.8613 l-13.721 0 z M474.7501875 5.3420000000000005 l-3.3984 -1.7578 l-3.3984 1.7578 l-1.1816 -1.8359 l4.5801 -2.5977 l4.5801 2.5977 z M529.820453125 17.4609 l-7.4805 0 l-1.2598 2.5391 l-4.043 0 l7.0215 -13.418 l4.043 0 l7.0215 13.418 l-4.043 0 z M523.638653125 14.8437 l4.9023 0 l-2.4414 -4.9414 z M569.601671875 13.300799999999999 c0 1.1523 -0.21159 2.1696 -0.63477 3.0518 s-1.0286 1.6194 -1.8164 2.2119 s-1.7432 1.04 -2.8662 1.3428 s-2.3845 0.4541 -3.7842 0.4541 s-2.6644 -0.15137 -3.7939 -0.4541 s-2.0915 -0.75032 -2.8857 -1.3428 s-1.4063 -1.3298 -1.8359 -2.2119 s-0.64453 -1.8994 -0.64453 -3.0518 s0.21484 -2.1696 0.64453 -3.0518 s1.0417 -1.6194 1.8359 -2.2119 s1.7562 -1.04 2.8857 -1.3428 s2.3942 -0.4541 3.7939 -0.4541 s2.6611 0.15137 3.7842 0.4541 s2.0784 0.75032 2.8662 1.3428 s1.3933 1.3298 1.8164 2.2119 s0.63477 1.8994 0.63477 3.0518 z M565.939671875 13.300799999999999 c0 -0.5013 -0.079756 -1.001 -0.23926 -1.499 s-0.44271 -0.94563 -0.84961 -1.3428 s-0.96191 -0.7194 -1.665 -0.9668 s-1.5983 -0.37109 -2.6855 -0.37109 c-0.72917 0 -1.3704 0.056963 -1.9238 0.1709 s-1.0319 0.27182 -1.4355 0.47364 s-0.74219 0.43783 -1.0156 0.70802 s-0.49153 0.5599 -0.6543 0.86915 s-0.27832 0.63151 -0.34668 0.9668 s-0.10254 0.66568 -0.10254 0.99121 c0 0.33203 0.03418 0.66731 0.10254 1.0059 s0.18392 0.66244 0.34668 0.97169 s0.38086 0.59733 0.6543 0.86426 s0.61198 0.49967 1.0156 0.69823 s0.88216 0.35481 1.4355 0.46875 s1.1946 0.1709 1.9238 0.1709 c1.0872 0 1.9824 -0.1237 2.6855 -0.37109 s1.2581 -0.56966 1.665 -0.9668 s0.69011 -0.84473 0.84961 -1.3428 s0.23926 -0.99775 0.23926 -1.499 z M625.336203125 11.1621 c0 0.67058 -0.097656 1.2874 -0.29297 1.8506 s-0.50944 1.0481 -0.94238 1.4551 s-0.99443 0.72429 -1.6846 0.95215 s-1.53 0.3418 -2.5195 0.3418 l-6.0156 0 l0 4.2383 l-3.623 0 l0 -13.418 l9.6387 0 c0.98955 0 1.8294 0.1123 2.5195 0.33691 s1.2517 0.54036 1.6846 0.94727 s0.74707 0.8903 0.94238 1.4502 s0.29297 1.1751 0.29297 1.8457 z M621.674203125 11.2207 c0 -0.3125 -0.043945 -0.58104 -0.13184 -0.80565 s-0.23274 -0.40853 -0.43457 -0.55176 s-0.4655 -0.24902 -0.79102 -0.31738 s-0.72591 -0.10254 -1.2012 -0.10254 l-5.2344 0 l0 3.457 l5.2344 0 c0.47526 0 0.87565 -0.027666 1.2012 -0.083008 s0.58919 -0.14975 0.79102 -0.28321 s0.34668 -0.30762 0.43457 -0.52246 s0.13184 -0.47852 0.13184 -0.79102 z M646.87504375 20 l-3.623 0 l0 -13.418 l9.082 0 c0.97656 0 1.805 0.10091 2.4854 0.30273 s1.2337 0.48828 1.6602 0.85938 s0.73568 0.81868 0.92774 1.3428 s0.28809 1.1084 0.28809 1.7529 c0 0.56641 -0.079756 1.0612 -0.23926 1.4844 s-0.37435 0.78613 -0.64453 1.0889 s-0.58432 0.55827 -0.94239 0.7666 s-0.73568 0.38086 -1.1328 0.51758 l4.3945 5.3027 l-4.2383 0 l-4.0625 -4.9414 l-3.9551 0 l0 4.9414 z M654.03334375 10.8203 c0 -0.26042 -0.03418 -0.48174 -0.10254 -0.66403 s-0.18718 -0.33041 -0.35645 -0.44435 s-0.39551 -0.19694 -0.67871 -0.24902 s-0.6364 -0.078125 -1.0596 -0.078125 l-4.9609 0 l0 2.8711 l4.9609 0 c0.42317 0 0.77637 -0.026045 1.0596 -0.078125 s0.50944 -0.13509 0.67871 -0.24902 s0.28809 -0.26205 0.35645 -0.44435 s0.10254 -0.40365 0.10254 -0.66407 z M693.91221875 13.300799999999999 c0 1.1523 -0.21159 2.1696 -0.63477 3.0518 s-1.0286 1.6194 -1.8164 2.2119 s-1.7432 1.04 -2.8662 1.3428 s-2.3845 0.4541 -3.7842 0.4541 s-2.6644 -0.15137 -3.7939 -0.4541 s-2.0915 -0.75032 -2.8857 -1.3428 s-1.4063 -1.3298 -1.8359 -2.2119 s-0.64453 -1.8994 -0.64453 -3.0518 s0.21484 -2.1696 0.64453 -3.0518 s1.0417 -1.6194 1.8359 -2.2119 s1.7562 -1.04 2.8857 -1.3428 s2.3942 -0.4541 3.7939 -0.4541 s2.6611 0.15137 3.7842 0.4541 s2.0784 0.75032 2.8662 1.3428 s1.3933 1.3298 1.8164 2.2119 s0.63477 1.8994 0.63477 3.0518 z M690.25021875 13.300799999999999 c0 -0.5013 -0.079756 -1.001 -0.23926 -1.499 s-0.44271 -0.94563 -0.84961 -1.3428 s-0.96191 -0.7194 -1.665 -0.9668 s-1.5983 -0.37109 -2.6855 -0.37109 c-0.72917 0 -1.3704 0.056963 -1.9238 0.1709 s-1.0319 0.27182 -1.4355 0.47364 s-0.74219 0.43783 -1.0156 0.70802 s-0.49153 0.5599 -0.6543 0.86915 s-0.27832 0.63151 -0.34668 0.9668 s-0.10254 0.66568 -0.10254 0.99121 c0 0.33203 0.03418 0.66731 0.10254 1.0059 s0.18392 0.66244 0.34668 0.97169 s0.38086 0.59733 0.6543 0.86426 s0.61198 0.49967 1.0156 0.69823 s0.88216 0.35481 1.4355 0.46875 s1.1946 0.1709 1.9238 0.1709 c1.0872 0 1.9824 -0.1237 2.6855 -0.37109 s1.2581 -0.56966 1.665 -0.9668 s0.69011 -0.84473 0.84961 -1.3428 s0.23926 -0.99775 0.23926 -1.499 z M715.75395 9.443 l0 2.334 l8.7207 0 l0 2.8613 l-8.7207 0 l0 5.3613 l-3.623 0 l0 -13.418 l12.822 0 l0 2.8613 l-9.1992 0 z M742.9667875 20 l0 -13.418 l3.623 0 l0 13.418 l-3.623 0 z M778.070421875 10.3613 c-0.25391 -0.1237 -0.58916 -0.26372 -1.0059 -0.41997 s-0.88867 -0.30437 -1.416 -0.44434 s-1.1003 -0.25716 -1.7188 -0.35156 s-1.2532 -0.1416 -1.9043 -0.1416 c-0.52083 0 -0.96517 0.016279 -1.333 0.048828 s-0.67709 0.074863 -0.92774 0.12694 s-0.44922 0.1123 -0.5957 0.18066 s-0.25879 0.13835 -0.33691 0.20996 s-0.12858 0.14322 -0.15137 0.21483 s-0.03418 0.13672 -0.03418 0.19531 c0 0.19531 0.097656 0.36621 0.29297 0.5127 s0.46224 0.27669 0.80078 0.39063 s0.73242 0.22136 1.1816 0.32227 s0.9261 0.20508 1.4307 0.3125 s1.0254 0.22461 1.5625 0.35156 s1.0579 0.27507 1.5625 0.44434 s0.98145 0.36621 1.4307 0.59082 s0.8431 0.48665 1.1816 0.78613 s0.60547 0.64453 0.80078 1.0352 s0.29297 0.83659 0.29297 1.3379 c0 0.64453 -0.11394 1.1979 -0.3418 1.6602 s-0.53223 0.85286 -0.91309 1.1719 s-0.82194 0.57455 -1.3232 0.76661 s-1.0271 0.34018 -1.5771 0.44435 s-1.1067 0.17253 -1.6699 0.20508 s-1.0986 0.048828 -1.6064 0.048828 c-1.3281 0 -2.5569 -0.10905 -3.6865 -0.32715 s-2.1272 -0.4899 -2.9932 -0.81542 l0 -3.2031 c0.89192 0.49479 1.9092 0.88217 3.0518 1.1621 s2.3649 0.41992 3.667 0.41992 c0.76823 0 1.3948 -0.040693 1.8799 -0.12207 s0.86426 -0.18555 1.1377 -0.3125 s0.45898 -0.2653 0.55664 -0.41504 s0.14648 -0.29297 0.14648 -0.42969 c0 -0.21484 -0.097656 -0.40202 -0.29297 -0.56152 s-0.46224 -0.29947 -0.80078 -0.41991 s-0.73242 -0.23111 -1.1816 -0.33202 s-0.9261 -0.20182 -1.4307 -0.30272 s-1.0237 -0.20996 -1.5576 -0.32715 s-1.053 -0.25554 -1.5576 -0.41504 s-0.98145 -0.34505 -1.4307 -0.55664 s-0.8431 -0.46225 -1.1816 -0.75196 s-0.60547 -0.625 -0.80078 -1.0059 s-0.29297 -0.82194 -0.29297 -1.3232 c0 -0.59245 0.10417 -1.1035 0.3125 -1.5332 s0.4899 -0.7959 0.84472 -1.0986 s0.76497 -0.54851 1.2305 -0.7373 s0.95541 -0.33528 1.4697 -0.43945 s1.0352 -0.17578 1.5625 -0.21484 s1.0286 -0.058594 1.5039 -0.058594 c0.52083 0 1.0563 0.026045 1.6064 0.078125 s1.0921 0.12532 1.626 0.21973 s1.0498 0.20346 1.5479 0.32716 s0.95866 0.25391 1.3818 0.39063 l0 3.1055 z M809.8926875 10.3613 c-0.25391 -0.1237 -0.58916 -0.26372 -1.0059 -0.41997 s-0.88867 -0.30437 -1.416 -0.44434 s-1.1003 -0.25716 -1.7188 -0.35156 s-1.2532 -0.1416 -1.9043 -0.1416 c-0.52083 0 -0.96517 0.016279 -1.333 0.048828 s-0.67709 0.074863 -0.92774 0.12694 s-0.44922 0.1123 -0.5957 0.18066 s-0.25879 0.13835 -0.33691 0.20996 s-0.12858 0.14322 -0.15137 0.21483 s-0.03418 0.13672 -0.03418 0.19531 c0 0.19531 0.097656 0.36621 0.29297 0.5127 s0.46224 0.27669 0.80078 0.39063 s0.73242 0.22136 1.1816 0.32227 s0.9261 0.20508 1.4307 0.3125 s1.0254 0.22461 1.5625 0.35156 s1.0579 0.27507 1.5625 0.44434 s0.98145 0.36621 1.4307 0.59082 s0.8431 0.48665 1.1816 0.78613 s0.60547 0.64453 0.80078 1.0352 s0.29297 0.83659 0.29297 1.3379 c0 0.64453 -0.11394 1.1979 -0.3418 1.6602 s-0.53223 0.85286 -0.91309 1.1719 s-0.82194 0.57455 -1.3232 0.76661 s-1.0271 0.34018 -1.5771 0.44435 s-1.1067 0.17253 -1.6699 0.20508 s-1.0986 0.048828 -1.6064 0.048828 c-1.3281 0 -2.5569 -0.10905 -3.6865 -0.32715 s-2.1272 -0.4899 -2.9932 -0.81542 l0 -3.2031 c0.89192 0.49479 1.9092 0.88217 3.0518 1.1621 s2.3649 0.41992 3.667 0.41992 c0.76823 0 1.3948 -0.040693 1.8799 -0.12207 s0.86426 -0.18555 1.1377 -0.3125 s0.45898 -0.2653 0.55664 -0.41504 s0.14648 -0.29297 0.14648 -0.42969 c0 -0.21484 -0.097656 -0.40202 -0.29297 -0.56152 s-0.46224 -0.29947 -0.80078 -0.41991 s-0.73242 -0.23111 -1.1816 -0.33202 s-0.9261 -0.20182 -1.4307 -0.30272 s-1.0237 -0.20996 -1.5576 -0.32715 s-1.053 -0.25554 -1.5576 -0.41504 s-0.98145 -0.34505 -1.4307 -0.55664 s-0.8431 -0.46225 -1.1816 -0.75196 s-0.60547 -0.625 -0.80078 -1.0059 s-0.29297 -0.82194 -0.29297 -1.3232 c0 -0.59245 0.10417 -1.1035 0.3125 -1.5332 s0.4899 -0.7959 0.84472 -1.0986 s0.76497 -0.54851 1.2305 -0.7373 s0.95541 -0.33528 1.4697 -0.43945 s1.0352 -0.17578 1.5625 -0.21484 s1.0286 -0.058594 1.5039 -0.058594 c0.52083 0 1.0563 0.026045 1.6064 0.078125 s1.0921 0.12532 1.626 0.21973 s1.0498 0.20346 1.5479 0.32716 s0.95866 0.25391 1.3818 0.39063 l0 3.1055 z M829.351553125 20 l0 -13.418 l3.623 0 l0 13.418 l-3.623 0 z M869.4551875 13.300799999999999 c0 1.1523 -0.21159 2.1696 -0.63477 3.0518 s-1.0286 1.6194 -1.8164 2.2119 s-1.7432 1.04 -2.8662 1.3428 s-2.3845 0.4541 -3.7842 0.4541 s-2.6644 -0.15137 -3.7939 -0.4541 s-2.0915 -0.75032 -2.8857 -1.3428 s-1.4063 -1.3298 -1.8359 -2.2119 s-0.64453 -1.8994 -0.64453 -3.0518 s0.21484 -2.1696 0.64453 -3.0518 s1.0417 -1.6194 1.8359 -2.2119 s1.7562 -1.04 2.8857 -1.3428 s2.3942 -0.4541 3.7939 -0.4541 s2.6611 0.15137 3.7842 0.4541 s2.0784 0.75032 2.8662 1.3428 s1.3933 1.3298 1.8164 2.2119 s0.63477 1.8994 0.63477 3.0518 z M865.7931875 13.300799999999999 c0 -0.5013 -0.079756 -1.001 -0.23926 -1.499 s-0.44271 -0.94563 -0.84961 -1.3428 s-0.96191 -0.7194 -1.665 -0.9668 s-1.5983 -0.37109 -2.6855 -0.37109 c-0.72917 0 -1.3704 0.056963 -1.9238 0.1709 s-1.0319 0.27182 -1.4355 0.47364 s-0.74219 0.43783 -1.0156 0.70802 s-0.49153 0.5599 -0.6543 0.86915 s-0.27832 0.63151 -0.34668 0.9668 s-0.10254 0.66568 -0.10254 0.99121 c0 0.33203 0.03418 0.66731 0.10254 1.0059 s0.18392 0.66244 0.34668 0.97169 s0.38086 0.59733 0.6543 0.86426 s0.61198 0.49967 1.0156 0.69823 s0.88216 0.35481 1.4355 0.46875 s1.1946 0.1709 1.9238 0.1709 c1.0872 0 1.9824 -0.1237 2.6855 -0.37109 s1.2581 -0.56966 1.665 -0.9668 s0.69011 -0.84473 0.84961 -1.3428 s0.23926 -0.99775 0.23926 -1.499 z M900.34921875 20 l-9.0527 -9.2188 l0 9.2188 l-3.623 0 l0 -13.418 l3.9355 0 l9.0625 9.2578 l0 -9.2578 l3.6035 0 l0 13.418 l-3.9258 0 z M934.17396875 17.4609 l-7.4805 0 l-1.2598 2.5391 l-4.043 0 l7.0215 -13.418 l4.043 0 l7.0215 13.418 l-4.043 0 z M927.99216875 14.8437 l4.9023 0 l-2.4414 -4.9414 z M956.5917875 20 l0 -13.418 l3.623 0 l0 10.479 l9.7949 0 l0 2.9395 l-13.418 0 z M1025.051015625 19.08203 c-0.46875 0.19531 -0.94076 0.37102 -1.416 0.52727 s-0.9668 0.29134 -1.4746 0.40527 s-1.0433 0.2002 -1.6064 0.25879 s-1.167 0.087891 -1.8115 0.087891 c-1.3672 0 -2.6253 -0.14648 -3.7744 -0.43945 s-2.1387 -0.73405 -2.9688 -1.3232 s-1.4763 -1.3249 -1.9385 -2.207 s-0.69336 -1.9124 -0.69336 -3.0908 s0.23112 -2.2087 0.69336 -3.0908 s1.1084 -1.6179 1.9385 -2.207 s1.8196 -1.0303 2.9688 -1.3232 s2.4072 -0.43945 3.7744 -0.43945 c0.64453 0 1.2483 0.029297 1.8115 0.087891 s1.0986 0.14485 1.6064 0.25879 s0.99932 0.24902 1.4746 0.40527 s0.94727 0.33203 1.416 0.52734 l0 3.2617 c-0.37109 -0.20183 -0.76172 -0.40202 -1.1719 -0.60059 s-0.86263 -0.3776 -1.3574 -0.5371 s-1.0384 -0.28971 -1.6309 -0.39062 s-1.2598 -0.15137 -2.002 -0.15137 c-1.1394 0 -2.085 0.11719 -2.8369 0.35156 s-1.3525 0.54688 -1.8018 0.9375 s-0.76497 0.83821 -0.94727 1.3428 s-0.27344 1.0271 -0.27344 1.5674 c0 0.35808 0.039063 0.71127 0.11719 1.0596 s0.20833 0.67709 0.39063 0.98633 s0.41992 0.59408 0.71289 0.8545 s0.65755 0.48503 1.0938 0.67383 s0.94564 0.33691 1.5283 0.44434 s1.2549 0.16113 2.0166 0.16113 c0.74219 0 1.4095 -0.047197 2.002 -0.1416 s1.136 -0.21973 1.6309 -0.37598 s0.94727 -0.33366 1.3574 -0.53223 s0.80078 -0.40201 1.1719 -0.61034 l0 3.2617 l0 0 z M1043.347646875 20 l0 -13.418 l13.584 0 l0 2.8613 l-9.8633 0 l0 2.2168 l9.3555 0 l0 2.8613 l-9.3555 0 l0 2.6172 l10 0 l0 2.8613 l-13.721 0 z M1079.1055125 20 l-3.623 0 l0 -13.418 l9.082 0 c0.97656 0 1.805 0.10091 2.4854 0.30273 s1.2337 0.48828 1.6602 0.85938 s0.73568 0.81868 0.92774 1.3428 s0.28809 1.1084 0.28809 1.7529 c0 0.56641 -0.079756 1.0612 -0.23926 1.4844 s-0.37435 0.78613 -0.64453 1.0889 s-0.58432 0.55827 -0.94239 0.7666 s-0.73568 0.38086 -1.1328 0.51758 l4.3945 5.3027 l-4.2383 0 l-4.0625 -4.9414 l-3.9551 0 l0 4.9414 z M1086.2638125 10.8203 c0 -0.26042 -0.03418 -0.48174 -0.10254 -0.66403 s-0.18718 -0.33041 -0.35645 -0.44435 s-0.39551 -0.19694 -0.67871 -0.24902 s-0.6364 -0.078125 -1.0596 -0.078125 l-4.9609 0 l0 2.8711 l4.9609 0 c0.42317 0 0.77637 -0.026045 1.0596 -0.078125 s0.50944 -0.13509 0.67871 -0.24902 s0.28809 -0.26205 0.35645 -0.44435 s0.10254 -0.40365 0.10254 -0.66407 z M1116.39644375 9.502 l0 10.498 l-3.623 0 l0 -10.498 l-5.6934 0 l0 -2.9199 l15.02 0 l0 2.9199 l-5.7031 0 z M1156.578234375 13.300799999999999 c0 1.1523 -0.21159 2.1696 -0.63477 3.0518 s-1.0286 1.6194 -1.8164 2.2119 s-1.7432 1.04 -2.8662 1.3428 s-2.3845 0.4541 -3.7842 0.4541 s-2.6644 -0.15137 -3.7939 -0.4541 s-2.0915 -0.75032 -2.8857 -1.3428 s-1.4063 -1.3298 -1.8359 -2.2119 s-0.64453 -1.8994 -0.64453 -3.0518 s0.21484 -2.1696 0.64453 -3.0518 s1.0417 -1.6194 1.8359 -2.2119 s1.7562 -1.04 2.8857 -1.3428 s2.3942 -0.4541 3.7939 -0.4541 s2.6611 0.15137 3.7842 0.4541 s2.0784 0.75032 2.8662 1.3428 s1.3933 1.3298 1.8164 2.2119 s0.63477 1.8994 0.63477 3.0518 z M1152.916234375 13.300799999999999 c0 -0.5013 -0.079756 -1.001 -0.23926 -1.499 s-0.44271 -0.94563 -0.84961 -1.3428 s-0.96191 -0.7194 -1.665 -0.9668 s-1.5983 -0.37109 -2.6855 -0.37109 c-0.72917 0 -1.3704 0.056963 -1.9238 0.1709 s-1.0319 0.27182 -1.4355 0.47364 s-0.74219 0.43783 -1.0156 0.70802 s-0.49153 0.5599 -0.6543 0.86915 s-0.27832 0.63151 -0.34668 0.9668 s-0.10254 0.66568 -0.10254 0.99121 c0 0.33203 0.03418 0.66731 0.10254 1.0059 s0.18392 0.66244 0.34668 0.97169 s0.38086 0.59733 0.6543 0.86426 s0.61198 0.49967 1.0156 0.69823 s0.88216 0.35481 1.4355 0.46875 s1.1946 0.1709 1.9238 0.1709 c1.0872 0 1.9824 -0.1237 2.6855 -0.37109 s1.2581 -0.56966 1.665 -0.9668 s0.69011 -0.84473 0.84961 -1.3428 s0.23926 -0.99775 0.23926 -1.499 z M1173.693355625 20 l0 -3.5156 l3.7012 0 l0 3.5156 l-3.7012 0 z"
    ></path>
  </g>
</svg>
